<svg width="1440" height="1024" viewBox="0 0 1440 1024" fill="none" xmlns="http://www.w3.org/2000/svg">
<g clip-path="url(#clip0)">
<rect width="1440" height="1024" fill="white"/>
<g clip-path="url(#clip1)">
<path d="M425.932 -470.955L510.692 -435.139C595.451 -399.323 764.969 -327.691 852.504 -250.551C940.04 -173.412 945.592 -90.7647 855.582 -1.69793C764.548 87.4377 580.514 182.821 516.893 270.115C453.272 357.409 515.188 436.27 615.533 512.549C715.878 588.828 859.777 662.181 878.139 743.967C896.501 825.754 794.45 915.629 741.631 960.688L689.837 1005.68L197.939 1038.72L195.162 997.399C192.386 956.075 186.834 873.428 181.282 790.781C175.73 708.134 170.178 625.487 164.626 542.84C159.074 460.193 153.521 377.546 147.969 294.899C142.417 212.252 136.865 129.605 131.313 46.9577C125.761 -35.6894 120.209 -118.336 114.656 -200.983C109.104 -283.631 103.552 -366.278 100.776 -407.601L98 -448.925L425.932 -470.955Z" fill="#F3F4F5"/>
</g>
<g clip-path="url(#clip2)">
<path d="M419.654 -283.755L466.279 -243.616C511.156 -203.483 607.026 -123.198 558.735 -43.3407C510.443 36.5163 326.727 115.971 231.693 195.689C138.406 275.413 138.168 355.412 230.98 435.688C325.54 515.969 508.78 596.514 649.646 676.932C787.891 757.343 883.761 837.628 975.263 917.9C1066.76 998.173 1162.63 1078.46 1207.51 1118.59L1254.14 1158.73L-4.00036 1154.99L-3.88158 1114.99C-3.7628 1074.99 -3.52524 994.994 -3.28769 914.995C-3.05013 834.995 -2.81257 754.995 -2.57501 674.996C-2.33746 594.996 -2.0999 514.996 -1.86234 434.997C-1.62478 354.997 -1.38723 274.997 -1.14967 194.998C-0.912111 114.998 -0.674554 34.9985 -0.436996 -45.0011C-0.199439 -125.001 0.0381183 -205 0.156897 -245L0.275676 -285L419.654 -283.755Z" fill="#000B76"/>
</g>
</g>
<defs>
<clipPath id="clip0">
<rect width="1440" height="1024" fill="white"/>
</clipPath>
<clipPath id="clip1">
<rect width="1491" height="821.679" fill="white" transform="translate(917.831 -504) rotate(86.1567)"/>
</clipPath>
<clipPath id="clip2">
<rect width="1440" height="1397.94" fill="white" transform="translate(1398.21 -280.849) rotate(90.1701)"/>
</clipPath>
</defs>
</svg>
